<svg xmlns="http://www.w3.org/2000/svg" width="150" height="60" viewBox="0 0 150 60"><defs><style>.a{fill:#0058ab;}.a,.b,.c{fill-rule:evenodd;}.b{fill:#fbd914;}.c{fill:#0058a3;}</style></defs><g transform="translate(-100 -128)"><path class="a" d="M249.979,188H100V128H250v60Z" transform="translate(0 0)"/><path class="b" d="M107.2,162.2c0,14.75,30.174,27,72.01,27s71.99-12.25,71.99-27-30.174-27-71.99-27S107.2,147.45,107.2,162.2Z" transform="translate(-4.2 -4.2)"/><path class="c" d="M190.673,192.207a12.078,12.078,0,0,0,1.592,1.867H176.031a7.146,7.146,0,0,0-1.311-2.918c-.688-1.007-4.407-6.527-4.407-6.527v7.577a3.828,3.828,0,0,0,.322,1.867H157.114a3.828,3.828,0,0,0,.323-1.867V174.2a3.822,3.822,0,0,0-.323-1.867h13.522a3.822,3.822,0,0,0-.322,1.867v7.869s4.322-5.5,5.31-6.778a7.806,7.806,0,0,0,1.677-2.958h14.1a15.176,15.176,0,0,0-2.923,2.811c-.774.924-5.16,6.15-5.16,6.15s6.493,9.673,7.353,10.913ZM194.93,174.2v18.006a3.828,3.828,0,0,1-.323,1.867h26.1v-6.043a4.112,4.112,0,0,1-1.914.313H207.807v-2.853h10.555v-4.575H207.807v-2.875h10.986a4.353,4.353,0,0,1,1.914.294v-6.023h-26.1a3.944,3.944,0,0,1,.322,1.888Zm61.938,18.006a5.224,5.224,0,0,0,1.055,1.867H243.776a3.947,3.947,0,0,0-.43-1.867s-.215-.5-.516-1.239l-.129-.315h-8.148l-.129.336s-.237.609-.452,1.239a4.144,4.144,0,0,0-.366,1.867H222.449a5.458,5.458,0,0,0,1.01-1.867l6.687-18.006a3.92,3.92,0,0,0,.387-1.867h18.853a3.132,3.132,0,0,0,.41,1.867C250.353,175.585,256.4,190.989,256.868,192.207Zm-15.953-6.15-1.977-5.035a10.948,10.948,0,0,1-.43-1.428,8.171,8.171,0,0,1-.387,1.428c-.065.21-.9,2.413-1.87,5.035Zm-90.208-13.723H136a3.822,3.822,0,0,1,.322,1.867v18.006a3.828,3.828,0,0,1-.322,1.867h14.706a3.828,3.828,0,0,1-.323-1.867V174.2A3.822,3.822,0,0,1,150.707,172.334Zm101.646,1.72a2.767,2.767,0,0,1,2.732-2.855h.193a2.834,2.834,0,0,1,2.923,2.75v.1a2.937,2.937,0,0,1-5.87.147.36.36,0,0,0,.021-.147Zm.58,0a2.344,2.344,0,1,0,2.345-2.287,2.239,2.239,0,0,0-2.345,2.12Zm1.764,1.7h-.516v-3.441h1.311a1.109,1.109,0,0,1,1.1,1.112,1.148,1.148,0,0,1-.624,1.008l.753,1.322h-.58l-.688-1.217H254.7v1.217Zm0-1.7h.71a.589.589,0,0,0,.645-.567.6.6,0,0,0-.58-.63H254.7Z" transform="translate(-21.001 -25.2)"/></g></svg>